<?xml version="1.0" standalone="no"?>
<!DOCTYPE svg PUBLIC "-//W3C//DTD SVG 20010904//EN"
 "http://www.w3.org/TR/2001/REC-SVG-20010904/DTD/svg10.dtd">
<svg version="1.0" xmlns="http://www.w3.org/2000/svg"
 width="64.000000pt" height="64.000000pt" viewBox="0 0 64.000000 64.000000"
 preserveAspectRatio="xMidYMid meet">
<metadata>
Created by potrace 1.10, written by Peter Selinger 2001-2011
</metadata>
<g transform="translate(0.000000,64.000000) scale(0.100000,-0.100000)"
fill="#000000" stroke="none">
<path d="M115 456 c-11 -15 -15 -52 -15 -149 0 -124 1 -129 26 -153 24 -25 28
-26 112 -20 115 8 130 8 176 0 29 -5 48 -2 72 11 50 27 64 67 64 180 0 82 -3
101 -21 126 -24 34 -42 36 -71 9 -18 -16 -22 -34 -26 -105 -5 -86 -10 -97 -32
-70 -7 8 -18 15 -25 15 -6 0 -24 16 -38 37 l-26 36 25 19 c30 24 30 41 2 68
-20 18 -34 21 -116 19 -82 -1 -94 -4 -107 -23z m215 -26 c0 -18 -6 -20 -80
-20 l-80 0 0 -40 0 -40 75 0 c60 0 75 -3 75 -15 0 -12 -15 -15 -75 -15 l-75 0
0 -45 0 -45 80 0 c74 0 80 -2 80 -20 0 -20 -5 -21 -97 -18 l-98 3 -1 130 c0
72 0 133 2 136 2 3 46 6 98 8 91 2 96 0 96 -19z m180 -100 c0 -140 -10 -160
-80 -160 -49 0 -80 27 -80 71 0 41 33 37 40 -6 5 -27 9 -30 40 -30 l35 0 3
123 c2 114 4 122 22 122 19 0 20 -7 20 -120z"/>
</g>
</svg>
